<svg width="27" height="24" viewBox="0 0 27 24" fill="none" xmlns="http://www.w3.org/2000/svg">
<g clip-path="url(#clip0_7_232)">
<path d="M15.7726 12.3301L14.7372 11.3889C14.8501 11.1776 14.9491 10.9605 15.0336 10.7384H16.4979C16.979 10.7384 17.3692 10.3837 17.3692 9.94621V7.62402C17.3692 7.18661 16.9791 6.83186 16.4979 6.83186H15.0335C14.949 6.6098 14.85 6.39275 14.7372 6.18144L15.7726 5.2401C16.1129 4.93077 16.1129 4.4292 15.7726 4.11986L13.9664 2.47784C13.626 2.16859 13.0745 2.16859 12.7341 2.47784L11.6987 3.41918C11.4662 3.31655 11.2276 3.22653 10.9832 3.14976V1.81853C10.9832 1.38111 10.5931 1.02637 10.1118 1.02637H7.55743C7.07627 1.02637 6.68605 1.38103 6.68605 1.81853V3.14976C6.44178 3.22661 6.20303 3.31647 5.97058 3.41918L4.9352 2.47784C4.77183 2.32932 4.55014 2.24584 4.31903 2.24584C4.08791 2.24584 3.86631 2.32932 3.70285 2.47784L1.89654 4.11986C1.73316 4.26839 1.64134 4.46992 1.64134 4.68002C1.64134 4.89012 1.73316 5.09158 1.89654 5.24019L2.932 6.18152C2.81911 6.39275 2.72009 6.6098 2.63565 6.83194H1.17138C0.690136 6.83194 0.300003 7.18661 0.300003 7.62402V9.94629C0.300003 10.3837 0.690136 10.7384 1.17138 10.7384H2.63565C2.72027 10.9605 2.81911 11.1776 2.93209 11.389L1.89663 12.3302C1.55636 12.6395 1.55636 13.1411 1.89663 13.4504L3.70285 15.0925C4.0432 15.4016 4.59476 15.4018 4.93511 15.0925L5.97058 14.1511C6.20294 14.2538 6.44178 14.3439 6.68605 14.4206V15.7519C6.68605 16.1893 7.07618 16.544 7.55743 16.544H10.1119C10.5931 16.544 10.9833 16.1894 10.9833 15.7519V14.4206C11.2275 14.3438 11.4663 14.2538 11.6988 14.1511L12.7342 15.0925C13.0746 15.4017 13.6261 15.4017 13.9665 15.0925L15.7727 13.4504C16.113 13.141 16.113 12.6395 15.7726 12.3301ZM13.5292 9.76907C13.4092 10.2441 13.204 10.6943 12.9194 11.1071C12.7036 11.4199 12.7544 11.8269 13.0416 12.0879L13.9243 12.8903L13.3503 13.4121L12.4676 12.6096C12.1803 12.3485 11.7328 12.3027 11.3887 12.4985C10.9345 12.7574 10.4394 12.9439 9.91707 13.0528C9.52116 13.1354 9.24063 13.4557 9.24063 13.8249V14.9597H8.42889V13.8249C8.42889 13.4557 8.14836 13.1355 7.75245 13.0528C7.23014 12.9439 6.73503 12.7574 6.2808 12.4985C5.93698 12.3027 5.48925 12.3485 5.20196 12.6096L4.3192 13.4121L3.74525 12.8903L4.62791 12.0879C4.91511 11.8268 4.96578 11.4199 4.75014 11.1071C4.46551 10.6943 4.26036 10.2441 4.14036 9.76907C4.04951 9.40924 3.69725 9.15421 3.29111 9.15421H2.04267V8.41627H3.29085C3.69689 8.41627 4.04916 8.16124 4.14009 7.80148C4.26018 7.32633 4.46525 6.87623 4.74987 6.46354C4.96569 6.15073 4.91494 5.74378 4.62774 5.48269L3.74498 4.68019L4.31903 4.15841L5.20169 4.96091C5.48889 5.22208 5.93663 5.2679 6.28063 5.07194C6.73467 4.8132 7.22978 4.62677 7.75218 4.51776C8.14809 4.43518 8.42863 4.11485 8.42863 3.74564V2.61069H9.24036V3.74548C9.24036 4.11469 9.52089 4.43493 9.9168 4.5176C10.4393 4.62661 10.9343 4.81303 11.3884 5.07178C11.7324 5.2679 12.1802 5.222 12.4673 4.96075L13.35 4.15825L13.924 4.68002L13.0412 5.48253C12.754 5.7437 12.7034 6.15057 12.9191 6.46338C13.2037 6.87606 13.4088 7.32625 13.5289 7.80132C13.6197 8.16107 13.9721 8.4161 14.3781 8.4161H15.6263V9.15404H14.3781C13.9722 9.15413 13.62 9.40915 13.5292 9.76907Z" fill="url(#paint0_linear_7_232)"/>
<path d="M8.83458 5.74121C6.98827 5.74121 5.48623 7.10671 5.48623 8.78517C5.48623 10.4636 6.98827 11.8291 8.83458 11.8291C10.6809 11.8291 12.1829 10.4636 12.1829 8.78517C12.1829 7.10671 10.681 5.74121 8.83458 5.74121ZM8.83458 10.2449C7.94916 10.2449 7.22889 9.5901 7.22889 8.78517C7.22889 7.98024 7.94925 7.32545 8.83458 7.32545C9.71991 7.32545 10.4403 7.98024 10.4403 8.78517C10.4403 9.5901 9.72 10.2449 8.83458 10.2449Z" fill="url(#paint1_linear_7_232)"/>
<path d="M26.1292 17.8659C26.5078 17.8023 26.7581 17.4719 26.6883 17.1278L26.3595 15.5073C26.326 15.342 26.2215 15.1956 26.0693 15.1004C25.9171 15.0051 25.7292 14.9686 25.5476 14.9991L24.5804 15.1612C24.5055 15.0442 24.4244 14.9305 24.3375 14.8204L24.8951 14.0842C24.9999 13.9457 25.04 13.7751 25.0065 13.6099C24.973 13.4445 24.8685 13.2982 24.7163 13.2029L23.2233 12.2684C22.9065 12.0701 22.4723 12.1426 22.254 12.4309L21.6963 13.1673C21.5522 13.1327 21.4065 13.1045 21.2595 13.0826L21.0811 12.2035C21.0112 11.8593 20.6473 11.6315 20.2692 11.6953L18.4867 11.9942C18.3048 12.0246 18.1438 12.1196 18.039 12.2579C17.9342 12.3964 17.8941 12.567 17.9277 12.7323L18.1061 13.6115C17.9773 13.6797 17.8522 13.7534 17.7311 13.8323L16.9213 13.3254C16.7689 13.2301 16.5813 13.1939 16.3995 13.2242C16.2176 13.2546 16.0566 13.3496 15.9518 13.488L14.9239 14.8452C14.819 14.9837 14.779 15.1543 14.8125 15.3195C14.8461 15.4848 14.9505 15.6313 15.1028 15.7265L15.9126 16.2334C15.8746 16.3644 15.8436 16.4968 15.8195 16.6305L14.8524 16.7927C14.6705 16.8232 14.5095 16.9181 14.4047 17.0565C14.2998 17.195 14.2598 17.3656 14.2933 17.5308L14.6222 19.1513C14.6921 19.4954 15.0555 19.7233 15.4341 19.6595L16.4013 19.4973C16.4762 19.6143 16.5573 19.7281 16.6442 19.8381L16.0866 20.5743C15.9818 20.7128 15.9417 20.8833 15.9752 21.0486C16.0087 21.214 16.1132 21.3603 16.2654 21.4556L17.7584 22.3901C18.0752 22.5884 18.5095 22.5158 18.7277 22.2276L19.2853 21.4913C19.4294 21.5258 19.5751 21.554 19.7222 21.576L19.9006 22.4551C19.9626 22.7604 20.2557 22.974 20.5853 22.974C20.6273 22.974 20.6699 22.9706 20.7125 22.9634L22.495 22.6645C22.6769 22.634 22.8379 22.5391 22.9427 22.4007C23.0475 22.2622 23.0876 22.0916 23.054 21.9264L22.8756 21.0472C23.0044 20.979 23.1295 20.9053 23.2506 20.8263L24.0604 21.3332C24.2127 21.4286 24.4002 21.465 24.5821 21.4345C24.764 21.404 24.925 21.3091 25.0298 21.1707L26.0577 19.8134C26.276 19.5252 26.196 19.1307 25.8789 18.9322L25.0691 18.4252C25.1071 18.2942 25.1381 18.1618 25.1622 18.0281L26.1292 17.8659ZM24.3972 16.8676C24.0776 16.9212 23.8412 17.1685 23.8273 17.4636C23.8113 17.801 23.7338 18.1311 23.5969 18.4452C23.4772 18.7198 23.582 19.0331 23.8496 19.2006L24.5142 19.6167L24.2769 19.9301L23.6124 19.5141C23.3445 19.3465 22.9852 19.3694 22.7459 19.569C22.472 19.7973 22.1603 19.981 21.8193 20.115C21.521 20.2322 21.3513 20.5212 21.4102 20.8116L21.5566 21.5332L21.1452 21.6023L20.9988 20.8807C20.9398 20.5902 20.6679 20.3753 20.3433 20.3626C19.9719 20.348 19.6086 20.2775 19.2633 20.1531C19.1796 20.123 19.0927 20.1085 19.0068 20.1085C18.7827 20.1085 18.5655 20.2071 18.4324 20.3829L17.9748 20.9871L17.6301 20.7713L18.0877 20.1672C18.2719 19.9239 18.2469 19.5972 18.0272 19.3795C17.7761 19.1305 17.5741 18.8471 17.4266 18.537C17.2976 18.2659 16.9789 18.1115 16.6603 18.1652L15.8666 18.2983L15.7906 17.9243L16.5844 17.7912C16.904 17.7376 17.1405 17.4903 17.1543 17.1952C17.1703 16.8579 17.2478 16.5277 17.3847 16.2135C17.5045 15.9389 17.3996 15.6256 17.1319 15.458L16.4673 15.0421L16.7046 14.7287L17.3693 15.1447C17.6371 15.3124 17.9963 15.2895 18.2357 15.0898C18.5096 14.8615 18.8213 14.6778 19.1625 14.5438C19.4606 14.4265 19.6303 14.1375 19.5714 13.8471L19.425 13.1256L19.8365 13.0566L19.9829 13.7781C20.0418 14.0687 20.3138 14.2836 20.6384 14.2962C21.0095 14.3108 21.3727 14.3812 21.7181 14.5057C22.0204 14.6146 22.365 14.5192 22.5492 14.276L23.0068 13.6717L23.3516 13.8874L22.894 14.4916C22.7097 14.735 22.7348 15.0617 22.9544 15.2794C23.2055 15.5283 23.4076 15.8116 23.5549 16.1217C23.6837 16.3928 24.002 16.5472 24.3212 16.4936L25.115 16.3605L25.1909 16.7345L24.3972 16.8676Z" fill="url(#paint2_linear_7_232)"/>
<path d="M21.8828 15.4912C21.3428 15.1533 20.6901 15.0267 20.0454 15.1348C19.4006 15.2429 18.8407 15.5729 18.4689 16.0638C17.7012 17.0773 17.9838 18.4696 19.0987 19.1674C19.5228 19.433 20.0074 19.5602 20.4871 19.5602C21.2683 19.5602 22.0372 19.2227 22.5127 18.5948C23.2803 17.5813 22.9977 16.189 21.8828 15.4912ZM21.3644 17.8761C21.0328 18.3139 20.371 18.425 19.8894 18.1235C19.4077 17.8221 19.2856 17.2204 19.6172 16.7826C19.6173 16.7825 19.6173 16.7825 19.6173 16.7825C19.7779 16.5704 20.0198 16.4279 20.2984 16.3812C20.3633 16.3703 20.4284 16.3649 20.4931 16.3649C20.7058 16.3649 20.9133 16.4232 21.0923 16.5352C21.574 16.8367 21.6961 17.4382 21.3644 17.8761Z" fill="url(#paint3_linear_7_232)"/>
</g>
<defs>
<linearGradient id="paint0_linear_7_232" x1="8.83463" y1="1.02637" x2="8.83463" y2="16.544" gradientUnits="userSpaceOnUse">
<stop stop-color="#D0CDE5"/>
<stop offset="1" stop-color="#D0CDE5" stop-opacity="0.5"/>
</linearGradient>
<linearGradient id="paint1_linear_7_232" x1="8.83458" y1="5.74121" x2="8.83458" y2="11.8291" gradientUnits="userSpaceOnUse">
<stop stop-color="#D0CDE5"/>
<stop offset="1" stop-color="#D0CDE5" stop-opacity="0.5"/>
</linearGradient>
<linearGradient id="paint2_linear_7_232" x1="20.4909" y1="11.6846" x2="20.4909" y2="22.974" gradientUnits="userSpaceOnUse">
<stop stop-color="#D0CDE5"/>
<stop offset="1" stop-color="#D0CDE5" stop-opacity="0.5"/>
</linearGradient>
<linearGradient id="paint3_linear_7_232" x1="20.4908" y1="15.0972" x2="20.4908" y2="19.5602" gradientUnits="userSpaceOnUse">
<stop stop-color="#D0CDE5"/>
<stop offset="1" stop-color="#D0CDE5" stop-opacity="0.5"/>
</linearGradient>
<clipPath id="clip0_7_232">
<rect width="26.4" height="24" fill="white" transform="translate(0.300003)"/>
</clipPath>
</defs>
</svg>
