<svg width="121" height="125" viewBox="0 0 121 125" fill="none" xmlns="http://www.w3.org/2000/svg">
<path d="M60.25 1.87639C60.4047 1.78707 60.5953 1.78707 60.75 1.87639L91.226 19.4717C91.3807 19.561 91.476 19.7261 91.476 19.9047V55.0953C91.476 55.2739 91.3807 55.439 91.226 55.5283L60.75 73.1236L61.5 74.4226L60.75 73.1236C60.5953 73.2129 60.4047 73.2129 60.25 73.1236L29.774 55.5283C29.6193 55.439 29.524 55.2739 29.524 55.0953V19.9047C29.524 19.7261 29.6193 19.561 29.774 19.4717L60.25 1.87639Z" stroke="url(#paint0_linear_7_150)" stroke-width="3"/>
<g clip-path="url(#clip0_7_150)">
<path d="M41.261 52.5053C41.261 55.2921 43.52 57.5508 46.3065 57.5508H75.3457C78.1327 57.5508 80.3914 55.2918 80.3914 52.5053V23.4661C80.3914 20.6791 78.1324 18.4204 75.3459 18.4204H46.3066C43.5197 18.4204 41.261 20.6794 41.261 23.4659V52.5052V52.5053Z" fill="#563D7C"/>
<path d="M57.4876 35.7294V30.188H62.3653C62.8299 30.188 63.2778 30.2266 63.7091 30.3041C64.1405 30.3815 64.5222 30.5197 64.854 30.7188C65.1857 30.918 65.4512 31.1945 65.6504 31.5484C65.8494 31.9024 65.9491 32.3559 65.9491 32.9088C65.9491 33.9043 65.6504 34.6233 65.053 35.0657C64.4558 35.5082 63.6926 35.7294 62.7634 35.7294H57.4876ZM52.2779 26.1396V49.8319H63.759C64.8209 49.8319 65.8551 49.6992 66.8616 49.4337C67.8681 49.1682 68.764 48.759 69.5494 48.206C70.3346 47.653 70.9596 46.9395 71.4241 46.0658C71.8888 45.1919 72.121 44.1577 72.121 42.9631C72.121 41.4809 71.7615 40.2145 71.0426 39.1638C70.3236 38.113 69.234 37.3774 67.774 36.9571C68.8358 36.4484 69.6379 35.7957 70.1799 34.9993C70.7218 34.203 70.9928 33.2076 70.9928 32.0129C70.9928 30.9068 70.8103 29.9778 70.4452 29.2256C70.0802 28.4736 69.5659 27.8707 68.9022 27.4172C68.2387 26.9637 67.4423 26.6373 66.5131 26.4383C65.584 26.2392 64.5553 26.1396 63.4271 26.1396H52.2779ZM57.4876 45.7836V39.2798H63.1616C64.2898 39.2798 65.1969 39.5397 65.8827 40.0597C66.5684 40.5795 66.9114 41.4478 66.9114 42.6645C66.9114 43.284 66.8063 43.7927 66.5961 44.1909C66.3859 44.589 66.1039 44.9044 65.7499 45.1366C65.396 45.3689 64.9867 45.5347 64.5222 45.6344C64.0575 45.7338 63.571 45.7836 63.0621 45.7836H57.4876Z" fill="white"/>
</g>
<path d="M15.1738 92H20.7738C21.7072 92 22.4672 92.18 23.0538 92.54C23.6538 92.9 24.0805 93.3533 24.3338 93.9C24.5872 94.4333 24.7138 94.9867 24.7138 95.56C24.7138 96.16 24.5872 96.68 24.3338 97.12C24.0805 97.56 23.7738 97.9 23.4138 98.14C23.0538 98.38 22.7138 98.5333 22.3938 98.6V98.72C22.7405 98.7467 23.1405 98.8733 23.5938 99.1C24.0605 99.3133 24.4672 99.6667 24.8138 100.16C25.1738 100.64 25.3538 101.253 25.3538 102C25.3538 102.667 25.2005 103.307 24.8938 103.92C24.6005 104.52 24.1338 105.02 23.4938 105.42C22.8538 105.807 22.0538 106 21.0938 106H15.1738V92ZM20.2738 98.14C21.0338 98.14 21.6872 97.9467 22.2338 97.56C22.7805 97.16 23.0538 96.5467 23.0538 95.72C23.0538 94.9333 22.7872 94.36 22.2538 94C21.7338 93.64 21.0738 93.46 20.2738 93.46H16.8538V98.14H20.2738ZM20.6538 104.54C21.5205 104.54 22.2405 104.34 22.8138 103.94C23.3872 103.54 23.6738 102.887 23.6738 101.98C23.6738 101.087 23.3872 100.453 22.8138 100.08C22.2405 99.6933 21.5205 99.5 20.6538 99.5H16.8538V104.54H20.6538ZM32.1143 106.14C31.0476 106.14 30.141 105.887 29.3943 105.38C28.661 104.86 28.1076 104.187 27.7343 103.36C27.361 102.52 27.1743 101.62 27.1743 100.66C27.1743 99.7 27.361 98.8067 27.7343 97.98C28.1076 97.14 28.661 96.4667 29.3943 95.96C30.141 95.44 31.0476 95.18 32.1143 95.18C33.181 95.18 34.081 95.44 34.8143 95.96C35.561 96.4667 36.1143 97.14 36.4743 97.98C36.8476 98.82 37.0343 99.7133 37.0343 100.66C37.0343 101.607 36.8476 102.5 36.4743 103.34C36.101 104.18 35.541 104.86 34.7943 105.38C34.061 105.887 33.1676 106.14 32.1143 106.14ZM32.1143 104.66C32.7676 104.66 33.3343 104.48 33.8143 104.12C34.3076 103.76 34.681 103.28 34.9343 102.68C35.1876 102.067 35.3143 101.387 35.3143 100.64C35.3143 99.4933 35.0276 98.54 34.4543 97.78C33.881 97.02 33.101 96.64 32.1143 96.64C31.4476 96.64 30.8676 96.82 30.3743 97.18C29.8943 97.54 29.5276 98.0267 29.2743 98.64C29.021 99.24 28.8943 99.9067 28.8943 100.64C28.8943 101.787 29.181 102.747 29.7543 103.52C30.3276 104.28 31.1143 104.66 32.1143 104.66ZM44.0088 106.14C42.9422 106.14 42.0355 105.887 41.2888 105.38C40.5555 104.86 40.0022 104.187 39.6288 103.36C39.2555 102.52 39.0688 101.62 39.0688 100.66C39.0688 99.7 39.2555 98.8067 39.6288 97.98C40.0022 97.14 40.5555 96.4667 41.2888 95.96C42.0355 95.44 42.9422 95.18 44.0088 95.18C45.0755 95.18 45.9755 95.44 46.7088 95.96C47.4555 96.4667 48.0088 97.14 48.3688 97.98C48.7422 98.82 48.9288 99.7133 48.9288 100.66C48.9288 101.607 48.7422 102.5 48.3688 103.34C47.9955 104.18 47.4355 104.86 46.6888 105.38C45.9555 105.887 45.0622 106.14 44.0088 106.14ZM44.0088 104.66C44.6622 104.66 45.2288 104.48 45.7088 104.12C46.2022 103.76 46.5755 103.28 46.8288 102.68C47.0822 102.067 47.2088 101.387 47.2088 100.64C47.2088 99.4933 46.9222 98.54 46.3488 97.78C45.7755 97.02 44.9955 96.64 44.0088 96.64C43.3422 96.64 42.7622 96.82 42.2688 97.18C41.7888 97.54 41.4222 98.0267 41.1688 98.64C40.9155 99.24 40.7888 99.9067 40.7888 100.64C40.7888 101.787 41.0755 102.747 41.6488 103.52C42.2222 104.28 43.0088 104.66 44.0088 104.66ZM54.2634 96.84V102.96C54.2634 103.453 54.2834 103.82 54.3234 104.06C54.3767 104.287 54.5034 104.467 54.7034 104.6C54.9167 104.733 55.2567 104.8 55.7234 104.8C56.0434 104.8 56.39 104.753 56.7634 104.66V105.9C56.67 105.94 56.4634 105.98 56.1434 106.02C55.8367 106.06 55.5167 106.08 55.1834 106.08C54.41 106.08 53.83 105.973 53.4434 105.76C53.07 105.533 52.8234 105.233 52.7034 104.86C52.5967 104.473 52.5434 103.967 52.5434 103.34V96.84H50.5834V95.46H52.5434V92H54.2634V95.46H56.7634V96.84H54.2634ZM62.8949 106.14C62.0416 106.14 61.3016 105.973 60.6749 105.64C60.0483 105.293 59.5683 104.853 59.2349 104.32C58.9149 103.787 58.7549 103.227 58.7549 102.64V102.54H60.4749V102.62C60.4749 102.953 60.5683 103.287 60.7549 103.62C60.9416 103.94 61.2216 104.207 61.5949 104.42C61.9683 104.62 62.4216 104.72 62.9549 104.72C63.5949 104.72 64.1216 104.567 64.5349 104.26C64.9616 103.94 65.1749 103.507 65.1749 102.96C65.1749 102.507 65.0083 102.147 64.6749 101.88C64.3549 101.613 63.9483 101.44 63.4549 101.36L62.0749 101.16C61.2083 101.027 60.4816 100.733 59.8949 100.28C59.3083 99.8133 59.0149 99.14 59.0149 98.26C59.0149 97.2867 59.3616 96.5333 60.0549 96C60.7616 95.4533 61.6616 95.18 62.7549 95.18C63.5683 95.18 64.2616 95.3333 64.8349 95.64C65.4216 95.9333 65.8683 96.3267 66.1749 96.82C66.4816 97.3 66.6349 97.8267 66.6349 98.4V98.48H64.9149V98.44C64.9149 98.1733 64.8416 97.8933 64.6949 97.6C64.5616 97.3067 64.3283 97.0533 63.9949 96.84C63.6616 96.6267 63.2349 96.52 62.7149 96.52C62.0749 96.52 61.5616 96.68 61.1749 97C60.7883 97.3067 60.5949 97.7133 60.5949 98.22C60.5949 98.6333 60.7483 98.9733 61.0549 99.24C61.3616 99.5067 61.7483 99.68 62.2149 99.76L63.7149 100C64.5949 100.147 65.3349 100.453 65.9349 100.92C66.5349 101.373 66.8349 102.047 66.8349 102.94C66.8349 103.58 66.6616 104.14 66.3149 104.62C65.9816 105.1 65.5149 105.473 64.9149 105.74C64.3149 106.007 63.6416 106.14 62.8949 106.14ZM72.0368 96.84V102.96C72.0368 103.453 72.0568 103.82 72.0968 104.06C72.1501 104.287 72.2768 104.467 72.4768 104.6C72.6901 104.733 73.0301 104.8 73.4968 104.8C73.8168 104.8 74.1635 104.753 74.5368 104.66V105.9C74.4435 105.94 74.2368 105.98 73.9168 106.02C73.6101 106.06 73.2901 106.08 72.9568 106.08C72.1835 106.08 71.6035 105.973 71.2168 105.76C70.8435 105.533 70.5968 105.233 70.4768 104.86C70.3701 104.473 70.3168 103.967 70.3168 103.34V96.84H68.3568V95.46H70.3168V92H72.0368V95.46H74.5368V96.84H72.0368ZM76.9884 95.46H78.7084V97.14H78.8284C79.0017 96.6733 79.3084 96.28 79.7484 95.96C80.2017 95.6267 80.7684 95.46 81.4484 95.46C81.6617 95.46 81.8284 95.4733 81.9484 95.5C82.0817 95.5133 82.2284 95.5467 82.3884 95.6L82.3284 97.28C82.115 97.2133 81.9284 97.1667 81.7684 97.14C81.6217 97.1133 81.4284 97.1 81.1884 97.1C79.535 97.1 78.7084 98.08 78.7084 100.04V106H76.9884V95.46ZM87.8424 106.14C86.9091 106.14 86.1091 105.9 85.4424 105.42C84.7891 104.94 84.2891 104.287 83.9424 103.46C83.5958 102.633 83.4224 101.7 83.4224 100.66C83.4224 99.62 83.5958 98.6867 83.9424 97.86C84.3024 97.02 84.8158 96.3667 85.4824 95.9C86.1624 95.42 86.9691 95.18 87.9024 95.18C88.8358 95.18 89.5891 95.4 90.1624 95.84C90.7358 96.28 91.1691 96.8067 91.4624 97.42H91.6024V95.46H93.3424V106H91.6024V103.84H91.4624C91.1424 104.467 90.6891 105.007 90.1024 105.46C89.5158 105.913 88.7624 106.14 87.8424 106.14ZM88.3824 104.66C89.4091 104.66 90.1958 104.28 90.7424 103.52C91.2891 102.747 91.5624 101.793 91.5624 100.66C91.5624 99.5267 91.2891 98.58 90.7424 97.82C90.1958 97.0467 89.4091 96.66 88.3824 96.66C87.3291 96.66 86.5291 97.04 85.9824 97.8C85.4491 98.56 85.1824 99.5067 85.1824 100.64C85.1824 101.787 85.4491 102.747 85.9824 103.52C86.5291 104.28 87.3291 104.66 88.3824 104.66ZM101.865 106.14C100.945 106.14 100.191 105.913 99.6048 105.46C99.0181 105.007 98.5648 104.467 98.2448 103.84H98.1048V110.06H96.3648V95.46H98.1048V97.42H98.2448C98.5381 96.8067 98.9714 96.28 99.5448 95.84C100.118 95.4 100.871 95.18 101.805 95.18C102.751 95.18 103.558 95.42 104.225 95.9C104.905 96.3667 105.418 97.02 105.765 97.86C106.111 98.6867 106.285 99.62 106.285 100.66C106.285 101.7 106.111 102.633 105.765 103.46C105.418 104.287 104.911 104.94 104.245 105.42C103.578 105.9 102.785 106.14 101.865 106.14ZM101.325 104.66C102.365 104.66 103.151 104.28 103.685 103.52C104.231 102.76 104.505 101.807 104.505 100.66C104.505 99.5267 104.238 98.58 103.705 97.82C103.171 97.06 102.378 96.68 101.325 96.68C100.285 96.68 99.4914 97.06 98.9448 97.82C98.4114 98.58 98.1448 99.5267 98.1448 100.66C98.1448 101.793 98.4181 102.747 98.9648 103.52C99.5114 104.28 100.298 104.66 101.325 104.66Z" fill="#CFCCE0"/>
<defs>
<linearGradient id="paint0_linear_7_150" x1="92.6429" y1="75" x2="13.1356" y2="24.6315" gradientUnits="userSpaceOnUse">
<stop stop-color="#0D54BE"/>
<stop offset="1" stop-color="#20ECD3"/>
</linearGradient>
<clipPath id="clip0_7_150">
<rect width="39.1304" height="39.1304" fill="white" transform="translate(41.261 18.4204)"/>
</clipPath>
</defs>
</svg>
