<svg width="110" height="117" viewBox="0 0 110 117" fill="none" xmlns="http://www.w3.org/2000/svg">
<path d="M53.5 2.02073C54.4282 1.48483 55.5718 1.48483 56.5 2.02073L84.976 18.4613C85.9042 18.9972 86.476 19.9876 86.476 21.0594V53.9406C86.476 55.0124 85.9042 56.0028 84.976 56.5387L56.5 72.9793C55.5718 73.5152 54.4282 73.5152 53.5 72.9793L25.024 56.5387C24.0958 56.0028 23.524 55.0124 23.524 53.9406V21.0594C23.524 19.9876 24.0958 18.9972 25.024 18.4613L53.5 2.02073Z" stroke="url(#paint0_linear_7_119)" stroke-width="2"/>
<g clip-path="url(#clip0_7_119)">
<path d="M70.7872 24.5654L67.9741 56.0796L55.329 59.5851L42.7187 56.0844L39.9085 24.5654H70.7872Z" fill="#E44D26"/>
<path d="M55.3478 56.9056L65.5657 54.0729L67.9696 27.1426H55.3478V56.9056Z" fill="#F16529"/>
<path d="M49.8792 34.874H55.3478V31.0083H45.6545L45.747 32.0454L46.6972 42.6982H55.3478V38.8325H50.2325L49.8792 34.874ZM50.7505 44.6311H46.8699L47.4114 50.7008L55.33 52.8989L55.3478 52.894V48.8721L55.3309 48.8766L51.0257 47.7141L50.7505 44.6311Z" fill="#EBEBEB"/>
<path d="M42.7814 16H44.7459V17.9409H46.543V16H48.5076V21.8775H46.5431V19.9094H44.746V21.8775H42.7815V16H42.7814ZM51.0908 17.9491H49.3616V16H54.7859V17.9491H53.0557V21.8775H51.0912V17.9491H51.0911H51.0908ZM55.6468 16H57.6951L58.9552 18.0652L60.214 16H62.2632V21.8775H60.3067V18.9643L58.9552 21.054H58.9213L57.5689 18.9643V21.8775H55.6468V16ZM63.2409 16H65.206V19.9348H67.9686V21.8775H63.2407V16H63.2409Z" fill="black"/>
<path d="M55.3345 42.6982H60.0946L59.6458 47.7117L55.3344 48.8754V52.897L63.2592 50.7008L63.3173 50.0476L64.2259 39.8705L64.3202 38.8325H55.3345V42.6982ZM55.3345 34.8645V34.874H64.6719L64.7494 34.0051L64.9256 32.0454L65.018 31.0083H55.3345V34.8647V34.8645Z" fill="white"/>
</g>
<path d="M32.539 89V103H30.799V96.66H23.679V103H21.959V89H23.679V95.26H30.799V89H32.539ZM44.8932 90.56H40.7732V103H39.0532V90.56H34.9332V89H44.8932V90.56ZM47.1738 89H49.7138L53.8738 99.72H53.9338L58.0938 89H60.6338V103H58.9338V91.66H58.8538L54.5138 103H53.2738L48.9538 91.66H48.8738V103H47.1738V89ZM72.0354 101.44V103H63.7754V89H65.5154L65.4954 101.44H72.0354ZM83.7107 103.08C82.8174 103.08 82.0307 102.907 81.3507 102.56C80.6707 102.213 80.1307 101.767 79.7307 101.22C79.3307 100.66 79.0774 100.053 78.9707 99.4H80.6907C80.904 100.12 81.284 100.653 81.8307 101C82.3774 101.347 82.9974 101.52 83.6907 101.52C84.664 101.52 85.4174 101.213 85.9507 100.6C86.484 99.9733 86.7507 99.1533 86.7507 98.14C86.7507 97.06 86.4574 96.2467 85.8707 95.7C85.284 95.1533 84.5507 94.88 83.6707 94.88C82.7774 94.88 82.1374 95.08 81.7507 95.48C81.3774 95.88 81.1174 96.2667 80.9707 96.64L79.1707 96.52L79.5507 89H87.5107V90.6H80.9907L80.7507 95.1H80.8307C81.5107 94.0733 82.5774 93.56 84.0307 93.56C84.8974 93.56 85.664 93.7467 86.3307 94.12C87.0107 94.48 87.5374 95.0067 87.9107 95.7C88.284 96.38 88.4707 97.2 88.4707 98.16C88.4707 99.0933 88.2774 99.9333 87.8907 100.68C87.5174 101.427 86.9707 102.013 86.2507 102.44C85.5307 102.867 84.684 103.08 83.7107 103.08Z" fill="#CFCCE0"/>
<defs>
<linearGradient id="paint0_linear_7_119" x1="87.1429" y1="75" x2="7.63556" y2="24.6315" gradientUnits="userSpaceOnUse">
<stop stop-color="#0D54BE"/>
<stop offset="1" stop-color="#20ECD3"/>
</linearGradient>
<clipPath id="clip0_7_119">
<rect width="43.6957" height="43.6957" fill="white" transform="translate(33.5 16)"/>
</clipPath>
</defs>
</svg>
