<svg width="75" height="75" viewBox="0 0 75 75" fill="none" xmlns="http://www.w3.org/2000/svg">
<path d="M37.75 1.87639L68.226 19.4717C68.3807 19.561 68.476 19.7261 68.476 19.9047V55.0953C68.476 55.2739 68.3807 55.439 68.226 55.5283L37.75 73.1236C37.5953 73.2129 37.4047 73.2129 37.25 73.1236L6.77405 55.5283C6.61935 55.439 6.52405 55.2739 6.52405 55.0953V19.9047C6.52405 19.7261 6.61935 19.561 6.77405 19.4717L37.25 1.87639C37.4047 1.78707 37.5953 1.78707 37.75 1.87639Z" stroke="url(#paint0_linear_7_151)" stroke-width="3"/>
<g clip-path="url(#clip0_7_151)">
<path d="M18.261 52.5053C18.261 55.2921 20.52 57.5508 23.3065 57.5508H52.3457C55.1327 57.5508 57.3914 55.2918 57.3914 52.5053V23.4661C57.3914 20.6791 55.1324 18.4204 52.3459 18.4204H23.3066C20.5197 18.4204 18.261 20.6794 18.261 23.4659V52.5052V52.5053Z" fill="#563D7C"/>
<path d="M34.4876 35.7294V30.188H39.3653C39.8299 30.188 40.2778 30.2266 40.7091 30.3041C41.1405 30.3815 41.5222 30.5197 41.854 30.7188C42.1857 30.918 42.4512 31.1945 42.6504 31.5484C42.8494 31.9024 42.9491 32.3559 42.9491 32.9088C42.9491 33.9043 42.6504 34.6233 42.053 35.0657C41.4558 35.5082 40.6926 35.7294 39.7634 35.7294H34.4876ZM29.2779 26.1396V49.8319H40.759C41.8209 49.8319 42.8551 49.6992 43.8616 49.4337C44.8681 49.1682 45.764 48.759 46.5494 48.206C47.3346 47.653 47.9596 46.9395 48.4241 46.0658C48.8888 45.1919 49.121 44.1577 49.121 42.9631C49.121 41.4809 48.7615 40.2145 48.0426 39.1638C47.3236 38.113 46.234 37.3774 44.774 36.9571C45.8358 36.4484 46.6379 35.7957 47.1799 34.9993C47.7218 34.203 47.9928 33.2076 47.9928 32.0129C47.9928 30.9068 47.8103 29.9778 47.4452 29.2256C47.0802 28.4736 46.5659 27.8707 45.9022 27.4172C45.2387 26.9637 44.4423 26.6373 43.5131 26.4383C42.584 26.2392 41.5553 26.1396 40.4271 26.1396H29.2779ZM34.4876 45.7836V39.2798H40.1616C41.2898 39.2798 42.1969 39.5397 42.8827 40.0597C43.5684 40.5795 43.9114 41.4478 43.9114 42.6645C43.9114 43.284 43.8063 43.7927 43.5961 44.1909C43.3859 44.589 43.1039 44.9044 42.7499 45.1366C42.396 45.3689 41.9867 45.5347 41.5222 45.6344C41.0575 45.7338 40.571 45.7836 40.0621 45.7836H34.4876Z" fill="white"/>
</g>
<defs>
<linearGradient id="paint0_linear_7_151" x1="69.6429" y1="75" x2="-9.86444" y2="24.6315" gradientUnits="userSpaceOnUse">
<stop stop-color="#0D54BE"/>
<stop offset="1" stop-color="#20ECD3"/>
</linearGradient>
<clipPath id="clip0_7_151">
<rect width="39.1304" height="39.1304" fill="white" transform="translate(18.261 18.4204)"/>
</clipPath>
</defs>
</svg>
