<svg width="117" height="114" viewBox="0 0 117 114" fill="none" xmlns="http://www.w3.org/2000/svg">
<g clip-path="url(#clip0_7_129)">
<path d="M71.3687 54.5358L58.1737 58.0887L44.9785 54.5358L41.9337 21.5483H74.414L71.3687 54.5358Z" fill="#2062AF"/>
<path d="M58.1736 24.2202V55.2549L58.2034 55.2631L68.8816 52.3877L71.3463 24.2202H58.1736Z" fill="#3C9CD7"/>
<path d="M50.685 16.7017V14.7383H53.5496V12.5898H48.5366V18.6622H53.5496V16.7017H50.685ZM58.7027 14.7383H60.7055V12.5898H55.6919V14.7383C56.3627 15.409 56.7125 15.7301 57.6826 16.7001C57.1155 16.7001 55.6919 16.7022 55.6919 16.7021V18.6622H60.7055V16.7017L58.7027 14.7383ZM65.8085 14.7383H67.8112V12.5898H62.7974V14.7383C63.4682 15.409 63.8182 15.7301 64.7883 16.7001C64.2214 16.7001 62.7974 16.7022 62.7974 16.7021V18.6622H67.8113V16.7017L65.8085 14.7383Z" fill="black"/>
<path d="M58.1619 32.4683L48.7178 36.4016L49.031 40.2957L58.1619 36.3917L67.8748 32.239L68.2775 28.2554L58.1619 32.4683Z" fill="white"/>
<path d="M48.7177 36.4015L49.0309 40.2956L58.1618 36.3916V32.4683L48.7177 36.4015Z" fill="url(#paint0_linear_7_129)"/>
<path d="M68.2775 28.2554L58.1619 32.4683V36.3916L67.8748 32.2389L68.2775 28.2554Z" fill="url(#paint1_linear_7_129)"/>
<path d="M48.7322 36.4019L49.0455 40.296L63.0557 40.3407L62.7423 45.5328L58.1322 46.8307L53.7004 45.7118L53.4319 42.489H49.3141L49.8512 48.7106L58.1769 51.1724L66.4575 48.7553L67.5318 36.4019H48.7322Z" fill="url(#paint2_linear_7_129)"/>
<path opacity="0.05" d="M58.1619 36.4019H48.7178L49.031 40.296L58.1619 40.3252V36.4019ZM58.1619 46.8183L58.1172 46.8308L53.686 45.7119L53.4175 42.4891H49.2997L49.8368 48.7107L58.1619 51.1725V46.8183Z" fill="black"/>
<path d="M47.8673 28.2554H68.2776L67.8749 32.239H48.3596L47.8673 28.2554Z" fill="url(#paint3_linear_7_129)"/>
<path opacity="0.05" d="M58.1619 28.2554H47.8673L48.3596 32.239H58.1619V28.2554Z" fill="black"/>
</g>
<path d="M58.25 1.87639C58.4047 1.78707 58.5953 1.78707 58.75 1.87639L89.226 19.4717C89.3807 19.561 89.476 19.7261 89.476 19.9047V55.0953C89.476 55.2739 89.3807 55.439 89.226 55.5283L58.75 73.1236L59.5 74.4226L58.75 73.1236C58.5953 73.2129 58.4047 73.2129 58.25 73.1236L27.774 55.5283C27.6193 55.439 27.524 55.2739 27.524 55.0953V19.9047C27.524 19.7261 27.6193 19.561 27.774 19.4717L58.25 1.87639Z" stroke="url(#paint4_linear_7_129)" stroke-width="3"/>
<path d="M40.8609 103.14C39.5543 103.14 38.4276 102.833 37.4809 102.22C36.5343 101.593 35.8076 100.733 35.3009 99.64C34.8076 98.5467 34.5609 97.3067 34.5609 95.92C34.5609 94.5333 34.8076 93.2933 35.3009 92.2C35.8076 91.1067 36.5343 90.2533 37.4809 89.64C38.4276 89.0133 39.5543 88.7 40.8609 88.7C42.4343 88.7 43.7343 89.1467 44.7609 90.04C45.7876 90.92 46.4743 92.1133 46.8209 93.62H45.1209C44.8409 92.5933 44.3276 91.78 43.5809 91.18C42.8343 90.5667 41.9343 90.26 40.8809 90.26C39.4276 90.26 38.3143 90.7733 37.5409 91.8C36.7676 92.8133 36.3809 94.18 36.3809 95.9C36.3809 97.6333 36.7676 99.0133 37.5409 100.04C38.3143 101.053 39.4276 101.56 40.8809 101.56C41.8809 101.56 42.7409 101.293 43.4609 100.76C44.1809 100.213 44.6943 99.4867 45.0009 98.58H46.7009C46.3276 99.9667 45.6343 101.073 44.6209 101.9C43.6209 102.727 42.3676 103.14 40.8609 103.14ZM53.8192 103.16C52.7392 103.16 51.8126 102.94 51.0392 102.5C50.2792 102.047 49.7059 101.467 49.3192 100.76C48.9326 100.053 48.7392 99.3133 48.7392 98.54V98.44H50.6392V98.54C50.6392 99.0067 50.7459 99.4733 50.9592 99.94C51.1859 100.407 51.5392 100.8 52.0192 101.12C52.4992 101.427 53.1126 101.58 53.8592 101.58C54.7392 101.58 55.4659 101.353 56.0392 100.9C56.6126 100.447 56.8992 99.8333 56.8992 99.06C56.8992 98.42 56.6859 97.9133 56.2592 97.54C55.8459 97.1533 55.3126 96.8933 54.6592 96.76L52.6192 96.38C50.2726 95.86 49.0992 94.6267 49.0992 92.68C49.0992 91.88 49.2926 91.18 49.6792 90.58C50.0659 89.98 50.5992 89.52 51.2792 89.2C51.9726 88.8667 52.7726 88.7 53.6792 88.7C54.7059 88.7 55.5859 88.9067 56.3192 89.32C57.0526 89.7333 57.6059 90.2733 57.9792 90.94C58.3526 91.5933 58.5392 92.2733 58.5392 92.98V93.06H56.6392V93C56.6392 92.6 56.5392 92.1933 56.3392 91.78C56.1526 91.3533 55.8326 90.9867 55.3792 90.68C54.9392 90.3733 54.3526 90.22 53.6192 90.22C52.7792 90.22 52.1059 90.4533 51.5992 90.92C51.1059 91.3867 50.8592 91.9667 50.8592 92.66C50.8592 93.2467 51.0526 93.7267 51.4392 94.1C51.8259 94.4733 52.3526 94.7267 53.0192 94.86L54.8592 95.22C57.4326 95.74 58.7192 97 58.7192 99C58.7192 99.8133 58.5126 100.533 58.0992 101.16C57.6992 101.787 57.1259 102.28 56.3792 102.64C55.6326 102.987 54.7792 103.16 53.8192 103.16ZM65.9286 103.16C64.8486 103.16 63.9219 102.94 63.1486 102.5C62.3886 102.047 61.8153 101.467 61.4286 100.76C61.0419 100.053 60.8486 99.3133 60.8486 98.54V98.44H62.7486V98.54C62.7486 99.0067 62.8553 99.4733 63.0686 99.94C63.2953 100.407 63.6486 100.8 64.1286 101.12C64.6086 101.427 65.2219 101.58 65.9686 101.58C66.8486 101.58 67.5753 101.353 68.1486 100.9C68.7219 100.447 69.0086 99.8333 69.0086 99.06C69.0086 98.42 68.7953 97.9133 68.3686 97.54C67.9553 97.1533 67.4219 96.8933 66.7686 96.76L64.7286 96.38C62.3819 95.86 61.2086 94.6267 61.2086 92.68C61.2086 91.88 61.4019 91.18 61.7886 90.58C62.1753 89.98 62.7086 89.52 63.3886 89.2C64.0819 88.8667 64.8819 88.7 65.7886 88.7C66.8153 88.7 67.6953 88.9067 68.4286 89.32C69.1619 89.7333 69.7153 90.2733 70.0886 90.94C70.4619 91.5933 70.6486 92.2733 70.6486 92.98V93.06H68.7486V93C68.7486 92.6 68.6486 92.1933 68.4486 91.78C68.2619 91.3533 67.9419 90.9867 67.4886 90.68C67.0486 90.3733 66.4619 90.22 65.7286 90.22C64.8886 90.22 64.2153 90.4533 63.7086 90.92C63.2153 91.3867 62.9686 91.9667 62.9686 92.66C62.9686 93.2467 63.1619 93.7267 63.5486 94.1C63.9353 94.4733 64.4619 94.7267 65.1286 94.86L66.9686 95.22C69.5419 95.74 70.8286 97 70.8286 99C70.8286 99.8133 70.6219 100.533 70.2086 101.16C69.8086 101.787 69.2353 102.28 68.4886 102.64C67.7419 102.987 66.8886 103.16 65.9286 103.16ZM77.8413 103.16C76.4013 103.16 75.2813 102.813 74.4813 102.12C73.6946 101.427 73.2079 100.573 73.0213 99.56H74.7613C74.9479 100.173 75.2946 100.667 75.8013 101.04C76.3213 101.413 76.9946 101.6 77.8213 101.6C78.8079 101.6 79.5479 101.353 80.0413 100.86C80.5479 100.367 80.8013 99.7467 80.8013 99C80.8013 98.1733 80.5146 97.54 79.9413 97.1C79.3679 96.66 78.6613 96.44 77.8213 96.44H76.5013V95.06H77.7413C78.5413 95.06 79.2213 94.8733 79.7813 94.5C80.3413 94.1267 80.6213 93.52 80.6213 92.68C80.6213 91.9067 80.3613 91.2933 79.8413 90.84C79.3213 90.3867 78.6346 90.16 77.7813 90.16C76.9813 90.16 76.3479 90.3467 75.8813 90.72C75.4279 91.0933 75.1346 91.58 75.0013 92.18H73.3213C73.4813 91.22 73.9146 90.4 74.6213 89.72C75.3279 89.0267 76.3879 88.68 77.8013 88.68C78.8146 88.68 79.6613 88.8667 80.3413 89.24C81.0213 89.6133 81.5213 90.1 81.8413 90.7C82.1613 91.2867 82.3213 91.92 82.3213 92.6C82.3213 93.32 82.1613 93.9133 81.8413 94.38C81.5213 94.8333 81.1679 95.1733 80.7813 95.4C80.4079 95.6133 80.1546 95.72 80.0213 95.72V95.84C80.1946 95.8533 80.4746 95.96 80.8613 96.16C81.2613 96.36 81.6279 96.7067 81.9613 97.2C82.3079 97.6933 82.4813 98.34 82.4813 99.14C82.4813 99.8733 82.3146 100.547 81.9813 101.16C81.6479 101.76 81.1279 102.247 80.4213 102.62C79.7279 102.98 78.8679 103.16 77.8413 103.16Z" fill="#CFCCE0"/>
<defs>
<linearGradient id="paint0_linear_7_129" x1="53.4398" y1="40.2957" x2="53.4398" y2="32.4684" gradientUnits="userSpaceOnUse">
<stop offset="0.387" stop-color="#D1D3D4" stop-opacity="0"/>
<stop offset="1" stop-color="#D1D3D4"/>
</linearGradient>
<linearGradient id="paint1_linear_7_129" x1="63.2196" y1="36.3917" x2="63.2196" y2="28.2555" gradientUnits="userSpaceOnUse">
<stop offset="0.387" stop-color="#D1D3D4" stop-opacity="0"/>
<stop offset="1" stop-color="#D1D3D4"/>
</linearGradient>
<linearGradient id="paint2_linear_7_129" x1="48.7322" y1="43.7872" x2="67.5317" y2="43.7872" gradientUnits="userSpaceOnUse">
<stop stop-color="#E8E7E5"/>
<stop offset="1" stop-color="white"/>
</linearGradient>
<linearGradient id="paint3_linear_7_129" x1="47.8673" y1="30.2472" x2="68.2775" y2="30.2472" gradientUnits="userSpaceOnUse">
<stop stop-color="#E8E7E5"/>
<stop offset="1" stop-color="white"/>
</linearGradient>
<linearGradient id="paint4_linear_7_129" x1="90.6429" y1="75" x2="11.1356" y2="24.6315" gradientUnits="userSpaceOnUse">
<stop stop-color="#0D54BE"/>
<stop offset="1" stop-color="#20ECD3"/>
</linearGradient>
<clipPath id="clip0_7_129">
<rect width="52.1739" height="52.1739" fill="white" transform="translate(32.087 9.25244)"/>
</clipPath>
</defs>
</svg>
