<svg width="286" height="243" viewBox="0 0 286 243" fill="none" xmlns="http://www.w3.org/2000/svg">
<g clip-path="url(#clip0_7_157)">
<path d="M286 225.54H0V226.241H286V225.54Z" fill="#343D68"/>
<path d="M179.442 105.418C179.442 105.418 166.614 116.048 173.028 118.464C179.442 120.88 183.565 109.767 183.565 109.767L179.442 105.418Z" fill="#E9C1A1"/>
<path d="M179.9 101.553L177.151 106.385C177.151 106.385 181.733 106.385 182.649 113.632L186.314 108.801L179.9 101.553Z" fill="#CFCCE0"/>
<path d="M240.834 211.719L241.293 226.214L235.795 229.596L233.504 228.147L233.962 211.719H240.834Z" fill="#E9C1A1"/>
<path d="M208.306 207.853L209.222 223.315L196.394 229.113L197.31 220.899C197.31 220.899 200.975 214.618 200.059 207.853H208.306Z" fill="#E9C1A1"/>
<path d="M228.006 91.4058C228.006 91.4058 235.336 111.699 236.711 124.262C238.085 136.825 240.376 170.165 240.376 170.165L244.958 213.168L232.129 215.101L226.632 171.614L214.261 128.611L211.513 171.614L209.222 210.752L197.31 211.235L196.394 170.648L191.354 118.947L194.103 94.3049L228.006 91.4058Z" fill="#2F2E41"/>
<path d="M234.878 227.18C234.878 227.18 235.63 219.065 241.21 223.606L242.209 222.832L246.79 233.462C246.79 233.462 252.288 241.676 242.667 242.642C233.046 243.609 233.962 233.462 233.962 233.462L233.046 229.113L233.504 226.265L234.878 227.18Z" fill="#2F2E41"/>
<path d="M208.306 217.517C209.433 218.197 210.368 219.183 211.012 220.372C211.657 221.562 211.988 222.911 211.971 224.281C211.971 229.113 211.513 229.596 211.513 229.596L204.64 231.529C204.64 231.529 200.059 231.046 197.31 233.945C194.561 236.844 180.816 238.777 180.816 234.911C180.816 231.046 192.27 224.764 192.27 224.764C192.27 224.764 195.672 218.706 198.094 219.319C200.517 219.933 201.433 220.899 201.433 221.382C201.433 221.865 200.059 225.248 200.059 225.248C200.059 225.248 207.847 223.315 208.306 217.517Z" fill="#2F2E41"/>
<path d="M207.389 31.9741C213.715 31.9741 218.843 26.5659 218.843 19.8945C218.843 13.2232 213.715 7.81494 207.389 7.81494C201.063 7.81494 195.935 13.2232 195.935 19.8945C195.935 26.5659 201.063 31.9741 207.389 31.9741Z" fill="#E9C1A1"/>
<path d="M215.865 23.0352L220.905 35.1147L207.16 55.8917C207.16 55.8917 206.244 33.182 203.495 29.3165C200.746 25.4511 215.865 23.0352 215.865 23.0352Z" fill="#E9C1A1"/>
<path d="M209.451 48.1608L211.742 41.8794L213.574 42.3625L215.865 40.4297L219.072 29.7998L223.654 33.182L229.61 96.4791L192.499 97.4454L197.539 53.4757L202.121 40.9131L205.428 36.3022L207.618 43.3289L209.451 48.1608Z" fill="#CFCCE0"/>
<path d="M219.988 75.2191L221.39 31.5112C221.39 31.5112 224.112 31.7325 225.028 33.1821C225.944 34.6316 241.063 37.5307 241.063 37.5307L238.314 82.4668C238.314 82.4668 249.768 118.222 245.645 120.155C241.522 122.088 234.191 121.605 234.191 121.605L219.988 75.2191Z" fill="#575A89"/>
<path d="M197.768 69.6625L202.628 40.2051L191.812 47.9192L194.561 69.1793L192.27 83.6748C192.27 83.6748 183.565 123.779 186.314 125.229C189.063 126.678 192.27 125.229 192.27 125.229L197.768 84.6412V69.6625Z" fill="#575A89"/>
<path d="M195.019 46.9526L191.812 47.919L190.438 67.2464L188.147 84.1578L177.151 104.935C177.151 104.935 182.649 101.069 184.94 112.182L197.049 89.9477L195.019 46.9526Z" fill="#575A89"/>
<path d="M230.755 101.553C230.755 101.553 217.927 112.183 224.341 114.599C230.755 117.015 234.878 105.901 234.878 105.901L230.755 101.553Z" fill="#E9C1A1"/>
<path d="M238.544 106.868L234.42 112.182L228.922 102.036L231.213 97.687L238.544 106.868Z" fill="#CFCCE0"/>
<path d="M237.627 39.2218L241.292 37.2891C241.292 37.2891 244.041 41.1545 244.499 44.5368C244.958 47.9191 247.248 52.2678 247.248 54.6837C247.248 57.0996 253.663 79.8092 253.663 79.8092L239.002 111.216C239.002 111.216 235.795 99.6198 228.922 98.6534L240.376 81.742L233.962 69.6624L237.627 39.2218Z" fill="#575A89"/>
<path d="M216.978 8.38547L219.138 7.47353C219.138 7.47353 214.622 2.22991 208.338 2.6859L210.105 0.634023C210.105 0.634023 205.786 -1.18983 201.859 3.59781C199.794 6.11456 197.406 9.07288 195.917 12.4054H193.604L194.569 14.6472L191.19 16.889L194.658 16.4864C194.452 17.714 194.42 18.9673 194.564 20.2049C194.713 21.4428 195.312 22.5713 196.235 23.3523C196.235 23.3523 198.913 17.5048 198.913 16.5928V18.8727C198.913 18.8727 201.073 16.8208 201.073 15.4529L202.251 17.0488L202.84 14.541L210.105 17.0488L208.927 14.997L213.443 15.6809L211.676 13.1731C211.676 13.1731 216.781 16.1369 216.978 18.6447C217.174 21.1525 218.668 23.5288 218.668 23.5288C218.668 23.5288 222.672 11.8052 216.978 8.38547Z" fill="#2F2E41"/>
<path d="M216.781 19.6528C217.49 19.6528 218.064 18.8956 218.064 17.9617C218.064 17.0277 217.49 16.2705 216.781 16.2705C216.073 16.2705 215.498 17.0277 215.498 17.9617C215.498 18.8956 216.073 19.6528 216.781 19.6528Z" fill="#E9C1A1"/>
<path d="M53.0144 99.8794H13.4646V88.1914H34.1089L53.0144 99.8794Z" fill="#4F47C8"/>
<path d="M13.356 98.2754V132.423H141.785V98.2754H13.356ZM63.4453 126.694H21.7223V121.881H63.4453V126.694ZM133.418 117.756H21.7223V112.943H133.418V117.756ZM133.418 108.818H21.7223V104.005H133.418V108.818Z" fill="#343D68"/>
<path d="M53.0144 44.6473H13.4646V32.959H34.1089L53.0144 44.6473Z" fill="#4F47C8"/>
<path d="M13.356 43.7305V77.8783H141.785V43.7305H13.356ZM63.4453 72.1488H21.7223V67.336H63.4453V72.1488ZM87.5664 63.2108H21.7223V58.398H87.5664L87.5664 63.2108ZM133.418 54.2728H21.7223V49.46H133.418V54.2728Z" fill="#343D68"/>
<path d="M53.0144 153.966H13.4646V142.278H34.1089L53.0144 153.966Z" fill="#4F47C8"/>
<path d="M13.356 151.674V185.822H141.785V151.674H13.356ZM87.5664 180.093H21.7223V175.28H87.5664V180.093ZM87.5664 171.155H21.7223V166.342H87.5664V171.155ZM133.418 162.217H21.7223V157.404H133.418V162.217Z" fill="#343D68"/>
<path d="M178.184 70.3153H159.93V51.064H172.316V51.5223H160.364V69.8569H177.749V60.6896H178.184V70.3153Z" fill="#343D68"/>
<path d="M168.963 65.2938C168.541 63.9802 163.251 59.5149 166.492 58.7644L169.151 62.5025L181.372 49.6138L182.601 50.9101L168.963 65.2938Z" fill="#4F47C8"/>
<path d="M178.184 124.86H159.93V105.609H172.316V106.068H160.364V124.402H177.749V115.235H178.184V124.86Z" fill="#343D68"/>
<path d="M168.963 119.839C168.541 118.525 163.251 114.06 166.492 113.309L169.151 117.047L181.372 104.159L182.601 105.455L168.963 119.839Z" fill="#4F47C8"/>
<path d="M178.184 179.176H159.93V159.925H172.316V160.383H160.364V178.717H177.749V169.55H178.184V179.176Z" fill="#343D68"/>
<path d="M168.963 174.155C168.541 172.841 163.251 168.376 166.492 167.625L169.151 171.363L181.372 158.475L182.601 159.771L168.963 174.155Z" fill="#4F47C8"/>
</g>
<defs>
<clipPath id="clip0_7_157">
<rect width="286" height="243" fill="white"/>
</clipPath>
</defs>
</svg>
