<svg width="30" height="31" viewBox="0 0 30 31" fill="none" xmlns="http://www.w3.org/2000/svg">
<path d="M27.2863 0.440918H2.71374C1.215 0.440918 0 1.65592 0 3.15466V27.7271C0 29.2259 1.215 30.4409 2.71374 30.4409H27.2862C28.785 30.4409 30 29.2259 30 27.7271V3.15466C30 1.65592 28.785 0.440918 27.2863 0.440918ZM9.28327 26.3449C9.28327 26.7811 8.92971 27.1346 8.49353 27.1346H5.13181C4.69563 27.1346 4.34207 26.7811 4.34207 26.3449V12.2527C4.34207 11.8165 4.69563 11.4629 5.13181 11.4629H8.49353C8.92971 11.4629 9.28327 11.8165 9.28327 12.2527V26.3449ZM6.81267 10.1345C5.04887 10.1345 3.61901 8.70466 3.61901 6.94087C3.61901 5.17707 5.04887 3.7472 6.81267 3.7472C8.57647 3.7472 10.0063 5.17707 10.0063 6.94087C10.0063 8.70466 8.57654 10.1345 6.81267 10.1345ZM26.8516 26.4085C26.8516 26.8095 26.5264 27.1346 26.1254 27.1346H22.5181C22.1171 27.1346 21.7919 26.8095 21.7919 26.4085V19.7985C21.7919 18.8124 22.0812 15.4774 19.215 15.4774C16.9918 15.4774 16.5408 17.7601 16.4503 18.7845V26.4085C16.4503 26.8095 16.1252 27.1346 15.7242 27.1346H12.2352C11.8342 27.1346 11.5091 26.8095 11.5091 26.4085V12.1891C11.5091 11.7881 11.8342 11.4629 12.2352 11.4629H15.7242C16.1252 11.4629 16.4503 11.7881 16.4503 12.1891V13.4185C17.2747 12.1814 18.4998 11.2265 21.1083 11.2265C26.8846 11.2265 26.8516 16.623 26.8516 19.5881V26.4085Z" fill="white"/>
</svg>
